<svg xmlns="http://www.w3.org/2000/svg" version="1.1" xmlns:xlink="http://www.w3.org/1999/xlink" width="512" height="512" x="0" y="0" viewBox="0 0 24 24" style="enable-background:new 0 0 512 512" xml:space="preserve" class=""><g><path d="M16.365 14.183c0 .379-.264.698-.566.866l-1.564.87.694 1.893a.887.887 0 0 1-1.374 1.006l-1.556-1.203-1.556 1.203a.887.887 0 0 1-1.374-1.006l.694-1.893-1.564-.87c-.302-.168-.566-.487-.566-.866 0-.321.279-.676.731-.676h2.247l.596-2.283a.832.832 0 0 1 .792-.621.832.832 0 0 1 .792.621l.596 2.283h2.247c.452 0 .731.354.731.676ZM18.5 2H18v-.5a1.5 1.5 0 1 0-3 0V2H9v-.5a1.5 1.5 0 1 0-3 0V2h-.5A5.506 5.506 0 0 0 0 7.5v11C0 21.533 2.467 24 5.5 24h13c3.033 0 5.5-2.467 5.5-5.5v-11C24 4.467 21.533 2 18.5 2Zm0 19h-13A2.503 2.503 0 0 1 3 18.5V9h18v9.5c0 1.378-1.122 2.5-2.5 2.5Z" fill="#ffffff" opacity="1" data-original="#000000"></path></g></svg>