<svg xmlns="http://www.w3.org/2000/svg" version="1.1" xmlns:xlink="http://www.w3.org/1999/xlink" width="512" height="512" x="0" y="0" viewBox="0 0 409.6 409.6" style="enable-background:new 0 0 512 512" xml:space="preserve" class=""><g><path d="M204.8 136.535C204.8 61.133 170.383 0 128 0 85.601 0 51.2 61.133 51.2 136.535c0 32.814 20.685 60.616 49.633 71.598l-6.968 167.332c0 18.852 15.283 34.135 34.135 34.135 18.852 0 34.135-15.283 34.135-34.135l-6.968-167.317c28.969-10.997 49.633-38.799 49.633-71.613zM358.4 123.735 354.135 0H332.8l-4.265 123.735h-17.07L307.2 0h-25.6l-4.265 123.735h-17.07L256 0h-21.335L230.4 123.735c0 26.03 15.601 48.328 37.934 58.332l-8.069 193.398c0 18.852 15.283 34.135 34.135 34.135 18.852 0 34.135-15.283 34.135-34.135l-8.069-193.398c22.333-10.004 37.934-32.302 37.934-58.332z" fill="#ffffff" opacity="1" data-original="#000000" class=""></path></g></svg>