<svg xmlns="http://www.w3.org/2000/svg" version="1.1" xmlns:xlink="http://www.w3.org/1999/xlink" width="512" height="512" x="0" y="0" viewBox="0 0 24 24" style="enable-background:new 0 0 512 512" xml:space="preserve" class=""><g><path d="M14 7a2 2 0 1 1-2-2 2 2 0 0 1 2 2Zm2.95 4.957L12 16.8l-4.942-4.836a7 7 0 1 1 9.892-.008ZM16 7a4 4 0 1 0-4 4 4 4 0 0 0 4-4Zm5.867 3.613-1.435-.48a8.948 8.948 0 0 1-2.068 3.239L12 19.6l-6.34-6.2a8.989 8.989 0 0 1-2.42-4.371A2.968 2.968 0 0 0 0 12v9.752l7.983 2.281 8.02-2 8 1.948V13.483a3 3 0 0 0-2.136-2.871Z" fill="#ffffff" opacity="1" data-original="#000000" class=""></path></g></svg>