<svg xmlns="http://www.w3.org/2000/svg" version="1.1" xmlns:xlink="http://www.w3.org/1999/xlink" width="512" height="512" x="0" y="0" viewBox="0 0 24 24" style="enable-background:new 0 0 512 512" xml:space="preserve"><g><path d="M12.006 12.309c3.611-.021 5.555-1.971 5.622-5.671-.062-3.56-2.111-5.614-5.634-5.637-3.561.022-5.622 2.17-5.622 5.637 0 3.571 2.062 5.651 5.634 5.672ZM11.994 3c2.437.016 3.591 1.183 3.634 3.636-.047 2.559-1.133 3.657-3.622 3.672-2.495-.015-3.582-1.108-3.634-3.654.05-2.511 1.171-3.639 3.622-3.654ZM11.994 13.661c-5.328.034-8.195 2.911-8.291 8.322a1 1 0 0 0 .982 1.018c.516-.019 1.007-.43 1.018-.982.076-4.311 2.08-6.331 6.291-6.357 4.168.027 6.23 2.106 6.304 6.356.01.546.456.983 1 .983h.018c.552-.01.992-.465.983-1.017-.092-5.333-3.036-8.288-8.304-8.322Z" fill="#ffffff" opacity="1" data-original="#000000"></path></g></svg>