<svg xmlns="http://www.w3.org/2000/svg" version="1.1" xmlns:xlink="http://www.w3.org/1999/xlink" width="512" height="512" x="0" y="0" viewBox="0 0 24 24" style="enable-background:new 0 0 512 512" xml:space="preserve" class=""><g><path d="m19 11.994-3.524-3.447c-1.961-1.961-1.961-5.133-.012-7.083C16.409.52 17.665 0 19 0s2.591.52 3.535 1.464C23.48 2.408 24 3.664 24 5s-.52 2.591-1.465 3.536L19 11.994ZM19 3c-.534 0-1.037.208-1.415.586a2.003 2.003 0 0 0 0 2.828L19 7.797l1.426-1.395C20.792 6.036 21 5.534 21 5s-.208-1.037-.586-1.415A1.99 1.99 0 0 0 19 3ZM5 23.994l-3.524-3.447c-1.961-1.961-1.961-5.133-.012-7.083C2.409 12.52 3.665 12 5 12s2.591.52 3.535 1.464C9.48 14.408 10 15.664 10 17s-.52 2.591-1.465 3.536L5 23.994ZM5 15c-.534 0-1.037.208-1.415.586a2.003 2.003 0 0 0 0 2.828L5 19.797l1.426-1.395C6.792 18.036 7 17.534 7 17s-.208-1.037-.586-1.415A1.99 1.99 0 0 0 5 15Zm14.5 0h-4c-.827 0-1.5-.673-1.5-1.5s.673-1.5 1.5-1.5h.646l-2.069-2.023a7.248 7.248 0 0 1-.481-.531c-1.547.727-2.597 2.291-2.597 4.055 0 2.481 2.019 4.5 4.5 4.5h4c.827 0 1.5.673 1.5 1.5s-.673 1.5-1.5 1.5h-8.755a7.141 7.141 0 0 1-.794.95l-2.096 2.05H19.5c2.481 0 4.5-2.019 4.5-4.5s-2.019-4.5-4.5-4.5Z" fill="#ffffff" opacity="1" data-original="#000000" class=""></path></g></svg>